<?xml version="1.0" standalone="no"?>
<!DOCTYPE svg PUBLIC "-//W3C//DTD SVG 20010904//EN"
 "http://www.w3.org/TR/2001/REC-SVG-20010904/DTD/svg10.dtd">
<svg version="1.0" xmlns="http://www.w3.org/2000/svg"
 width="95.000000pt" height="30.000000pt" viewBox="0 0 95.000000 30.000000"
 preserveAspectRatio="xMidYMid meet">

<g transform="translate(0.000000,30.000000) scale(0.100000,-0.100000)"
fill="#000000" stroke="none">
<path d="M315 279 c-4 -5 19 -9 52 -9 33 0 64 -5 71 -12 16 -16 16 -94 0 -101
-9 -3 -13 9 -13 42 l0 46 -54 3 c-30 2 -59 -2 -64 -7 -8 -8 6 -11 46 -11 l57
0 1 -42 c1 -24 0 -73 -1 -110 -1 -44 2 -68 9 -68 7 0 11 23 11 58 0 32 5 63
12 70 7 7 31 12 54 12 24 0 46 5 49 10 4 6 -10 10 -34 10 l-41 0 0 43 c0 24
-4 47 -10 52 -6 7 15 9 55 7 41 -2 65 0 65 7 0 13 -257 14 -265 0z"/>
<path d="M480 240 c0 -5 20 -10 45 -10 25 0 45 5 45 10 0 6 -20 10 -45 10 -25
0 -45 -4 -45 -10z"/>
<path d="M457 123 c-11 -10 -8 -113 3 -113 6 0 10 23 10 50 0 49 1 50 30 50
17 0 30 5 30 10 0 11 -63 14 -73 3z"/>
</g>
</svg>
